<?xml version="1.0" encoding="utf-8"?>
<!-- Generator: Adobe Illustrator 28.2.0, SVG Export Plug-In . SVG Version: 6.00 Build 0)  -->
<svg version="1.1" id="Camada_1" xmlns="http://www.w3.org/2000/svg" xmlns:xlink="http://www.w3.org/1999/xlink" x="0px" y="0px"
	 viewBox="0 0 1080 1080" style="enable-background:new 0 0 1080 1080;" xml:space="preserve">
<style type="text/css">
	.st0{fill:url(#SVGID_1_);}
	.st1{fill:url(#SVGID_00000159460580533548695940000003894796495499382202_);}
	.st2{fill:url(#SVGID_00000078741714188754910030000007874511328927635586_);}
	.st3{fill:url(#SVGID_00000132790312319451474270000006540047348605870466_);}
	
		.st4{fill:url(#SVGID_00000029739162229293631460000001411547808425674396_);stroke:#B2B2B2;stroke-width:2.4004;stroke-miterlimit:10;}
	.st5{fill:url(#SVGID_00000158022821902053237150000017297553591064403866_);}
	.st6{fill:url(#SVGID_00000054963634586179370390000002533384955341618321_);stroke:#9D9D9C;stroke-miterlimit:10;}
	.st7{fill:none;stroke:#3C3C3B;stroke-width:3;stroke-miterlimit:10;}
	.st8{font-family:'ArialMT';}
	.st9{font-size:39.48px;}
</style>
<g>
	<g>
		<g>
			<radialGradient id="SVGID_1_" cx="400.5953" cy="290.3999" r="270.3018" gradientUnits="userSpaceOnUse">
				<stop  offset="0" style="stop-color:#236A99"/>
				<stop  offset="1" style="stop-color:#0C3A55"/>
			</radialGradient>
			<path class="st0" d="M532.14,162.13l-34.35,28.79l-6.72,5l-12.75,9.51l-13.47,10.04l-14.85,11.06l-18.07,13.47l-8.72,6.49
				l-14.27,10.63l-9.94,7.41l-30.9,23.03l-0.22,0.18v266.87v2.05v1.56l23.09,16.84l8.37,6.11l9.61,7.01l23.57,17.21l14.74,10.74
				h2.76v2l15.7,11.45l25.37,18.51l7.81,5.69l4.68,3.42l28.58,21.96v-1.29V487.18l-7.97,5.73l-33.1,22.87v73.35l-19.29-14.06
				l-11.19-8.16l-10.58-7.71L427.4,542.7l-11.95-8.72l-6.51-4.75v-77.39h88.58l29.95-41.07H408.94v-93.68l18.78-14l20.85-15.52
				l1.44-1.07l10.65-7.94l30.42-22.69v74.21l41.07,29.94V168.3V162.13z M526.95,615.29l1.14,0.83h-1.75L526.95,615.29z"/>
			
				<radialGradient id="SVGID_00000076593269043393463030000016227480618275733160_" cx="400.5953" cy="290.3999" r="270.3017" gradientUnits="userSpaceOnUse">
				<stop  offset="0" style="stop-color:#FFFFFF"/>
				<stop  offset="1" style="stop-color:#000000"/>
			</radialGradient>
			<polygon style="fill:url(#SVGID_00000076593269043393463030000016227480618275733160_);" points="450.01,616.13 450.01,618.13 
				447.25,616.13 			"/>
			
				<radialGradient id="SVGID_00000111912136948556281920000016154652841362624132_" cx="400.5953" cy="290.3999" r="270.3018" gradientUnits="userSpaceOnUse">
				<stop  offset="0" style="stop-color:#FFFFFF"/>
				<stop  offset="1" style="stop-color:#000000"/>
			</radialGradient>
			<polygon style="fill:url(#SVGID_00000111912136948556281920000016154652841362624132_);" points="528.09,616.13 526.34,616.13 
				526.95,615.29 			"/>
			
				<radialGradient id="SVGID_00000086683369140421811980000005854330624616033665_" cx="532.1434" cy="290.3999" r="255.859" gradientUnits="userSpaceOnUse">
				<stop  offset="0" style="stop-color:#FFFFFF"/>
				<stop  offset="1" style="stop-color:#000000"/>
			</radialGradient>
			
				<line style="fill:url(#SVGID_00000086683369140421811980000005854330624616033665_);" x1="532.14" y1="676.5" x2="532.14" y2="619.08"/>
		</g>
	</g>
	
		<radialGradient id="SVGID_00000044884244758713761700000004755914172602516886_" cx="682.022" cy="432.9173" r="318.9031" gradientUnits="userSpaceOnUse">
		<stop  offset="0" style="stop-color:#FFFFFF"/>
		<stop  offset="1" style="stop-color:#575756"/>
	</radialGradient>
	
		<polygon style="fill:url(#SVGID_00000044884244758713761700000004755914172602516886_);stroke:#B2B2B2;stroke-width:2.4004;stroke-miterlimit:10;" points="
		712.02,282.85 712.02,439.6 698.75,449.43 680.86,462.69 663.3,475.71 613.83,512.42 613.96,457.37 637,440.27 667.89,417.36 
		667.89,305.12 646.38,289.04 605.81,258.69 595.18,250.73 595.18,645.48 551.03,679.16 551.03,162.62 556.92,166.98 591.68,192.99 
		595.18,195.6 632.25,223.34 	"/>
</g>
<linearGradient id="SVGID_00000065753071884149251450000002281672796105454773_" gradientUnits="userSpaceOnUse" x1="149.0996" y1="773.1596" x2="637.3516" y2="773.1596">
	<stop  offset="0" style="stop-color:#002145"/>
	<stop  offset="1" style="stop-color:#1D6391"/>
</linearGradient>
<path style="fill:url(#SVGID_00000065753071884149251450000002281672796105454773_);" d="M149.1,801.27v-77.61h57.54v13.13h-41.87
	V754h38.96v13.08h-38.96v21.12h43.36v13.08H149.1z M216.07,785.23l14.93-2.28c0.64,2.89,1.92,5.09,3.86,6.59
	c1.94,1.5,4.66,2.25,8.15,2.25c3.85,0,6.74-0.71,8.68-2.12c1.31-0.99,1.96-2.31,1.96-3.97c0-1.13-0.35-2.07-1.06-2.81
	c-0.74-0.71-2.4-1.36-4.98-1.96c-12-2.65-19.61-5.06-22.82-7.25c-4.45-3.04-6.67-7.25-6.67-12.65c0-4.87,1.92-8.96,5.77-12.28
	c3.85-3.32,9.81-4.98,17.89-4.98c7.69,0,13.41,1.25,17.15,3.76c3.74,2.51,6.32,6.21,7.73,11.12l-14.03,2.59
	c-0.6-2.19-1.74-3.86-3.41-5.03c-1.68-1.17-4.07-1.75-7.17-1.75c-3.92,0-6.72,0.55-8.42,1.64c-1.13,0.78-1.69,1.78-1.69,3.02
	c0,1.06,0.49,1.96,1.48,2.7c1.34,0.99,5.97,2.38,13.9,4.18c7.92,1.8,13.45,4.01,16.6,6.62c3.11,2.65,4.66,6.33,4.66,11.06
	c0,5.15-2.15,9.58-6.46,13.29c-4.31,3.71-10.68,5.56-19.11,5.56c-7.66,0-13.72-1.55-18.18-4.66
	C220.36,794.78,217.44,790.56,216.07,785.23z M318.34,822.66v-28.27c-1.94,2.51-4.36,4.49-7.25,5.96c-2.89,1.46-6.02,2.2-9.37,2.2
	c-6.39,0-11.65-2.4-15.78-7.2c-4.87-5.61-7.31-13.22-7.31-22.82c0-9.03,2.28-16.08,6.86-21.15c4.57-5.06,10.24-7.6,17.02-7.6
	c3.74,0,6.98,0.79,9.71,2.38c2.73,1.59,5.16,3.99,7.28,7.2v-8.31h13.71v77.61H318.34z M318.82,772.47c0-5.75-1.17-10.03-3.52-12.84
	c-2.35-2.81-5.29-4.21-8.81-4.21c-3.6,0-6.61,1.43-9.03,4.29c-2.42,2.86-3.63,7.39-3.63,13.61c0,6.18,1.16,10.63,3.49,13.37
	c2.33,2.74,5.21,4.1,8.63,4.1c3.42,0,6.42-1.54,9-4.61C317.53,783.11,318.82,778.54,318.82,772.47z M384.84,801.27v-8.42
	c-2.05,3-4.74,5.37-8.07,7.09s-6.86,2.59-10.56,2.59c-3.78,0-7.17-0.83-10.16-2.49c-3-1.66-5.17-3.99-6.51-6.99
	c-1.34-3-2.01-7.15-2.01-12.44v-35.57h14.88v25.83c0,7.91,0.27,12.75,0.82,14.53c0.55,1.78,1.54,3.2,2.99,4.24
	c1.45,1.04,3.28,1.56,5.51,1.56c2.54,0,4.82-0.7,6.83-2.09c2.01-1.39,3.39-3.12,4.13-5.19c0.74-2.07,1.11-7.12,1.11-15.17v-23.72
	h14.88v56.22H384.84z M425.17,762.2l-13.5-2.44c1.52-5.43,4.13-9.46,7.83-12.07c3.71-2.61,9.21-3.92,16.52-3.92
	c6.63,0,11.58,0.79,14.82,2.36c3.25,1.57,5.53,3.57,6.86,5.98c1.32,2.42,1.99,6.86,1.99,13.31l-0.16,17.36
	c0,4.94,0.24,8.58,0.71,10.93c0.48,2.35,1.37,4.86,2.67,7.54H448.2c-0.39-0.99-0.87-2.45-1.43-4.39c-0.25-0.88-0.42-1.46-0.53-1.75
	c-2.54,2.47-5.26,4.32-8.15,5.56c-2.89,1.23-5.98,1.85-9.26,1.85c-5.79,0-10.35-1.57-13.68-4.71c-3.33-3.14-5-7.11-5-11.91
	c0-3.18,0.76-6.01,2.28-8.5c1.52-2.49,3.64-4.39,6.38-5.72c2.73-1.32,6.68-2.48,11.83-3.47c6.95-1.31,11.77-2.52,14.45-3.65v-1.48
	c0-2.86-0.71-4.9-2.12-6.11c-1.41-1.22-4.08-1.83-7.99-1.83c-2.65,0-4.71,0.52-6.19,1.56C427.29,757.76,426.09,759.59,425.17,762.2z
	 M445.08,774.27c-1.91,0.64-4.92,1.39-9.05,2.28c-4.13,0.88-6.83,1.75-8.1,2.59c-1.94,1.38-2.91,3.12-2.91,5.24
	c0,2.08,0.78,3.88,2.33,5.4c1.55,1.52,3.53,2.28,5.93,2.28c2.68,0,5.24-0.88,7.68-2.65c1.8-1.34,2.98-2.98,3.55-4.92
	c0.39-1.27,0.58-3.69,0.58-7.25V774.27z M525.92,801.27H512.1v-8.26c-2.29,3.21-5,5.6-8.13,7.17c-3.12,1.57-6.27,2.36-9.45,2.36
	c-6.46,0-11.99-2.6-16.6-7.81c-4.61-5.21-6.91-12.47-6.91-21.78c0-9.53,2.24-16.77,6.72-21.73c4.48-4.96,10.15-7.44,16.99-7.44
	c6.28,0,11.72,2.61,16.31,7.83v-27.95h14.88V801.27z M486.21,771.94c0,6,0.83,10.34,2.49,13.02c2.4,3.88,5.75,5.82,10.06,5.82
	c3.42,0,6.33-1.46,8.73-4.37c2.4-2.91,3.6-7.26,3.6-13.05c0-6.46-1.17-11.11-3.49-13.95s-5.31-4.26-8.95-4.26
	c-3.53,0-6.48,1.4-8.87,4.21C487.4,762.18,486.21,766.37,486.21,771.94z M554.82,801.27h-14.88v-56.22h13.82v7.99
	c2.37-3.78,4.49-6.26,6.38-7.46c1.89-1.2,4.03-1.8,6.43-1.8c3.39,0,6.65,0.94,9.79,2.81l-4.61,12.97c-2.51-1.62-4.84-2.43-6.99-2.43
	c-2.08,0-3.85,0.57-5.29,1.72c-1.45,1.15-2.58,3.22-3.41,6.22c-0.83,3-1.24,9.28-1.24,18.85V801.27z M579.33,772.37
	c0-4.94,1.22-9.72,3.65-14.35c2.43-4.62,5.88-8.15,10.35-10.59c4.46-2.43,9.45-3.65,14.96-3.65c8.5,0,15.47,2.76,20.91,8.29
	c5.43,5.52,8.15,12.5,8.15,20.94c0,8.51-2.74,15.56-8.23,21.15c-5.49,5.59-12.4,8.39-20.73,8.39c-5.15,0-10.07-1.17-14.74-3.49
	c-4.68-2.33-8.23-5.74-10.67-10.24C580.55,784.3,579.33,778.82,579.33,772.37z M594.58,773.16c0,5.58,1.32,9.85,3.97,12.81
	c2.65,2.96,5.91,4.45,9.79,4.45c3.88,0,7.14-1.48,9.77-4.45c2.63-2.96,3.94-7.27,3.94-12.92c0-5.51-1.32-9.74-3.94-12.71
	c-2.63-2.96-5.88-4.45-9.77-4.45c-3.88,0-7.15,1.48-9.79,4.45C595.9,763.31,594.58,767.58,594.58,773.16z"/>
<radialGradient id="SVGID_00000080164308476764752520000010720412841914707901_" cx="791.652" cy="768.3427" r="105.9523" gradientUnits="userSpaceOnUse">
	<stop  offset="0" style="stop-color:#EDEDED"/>
	<stop  offset="1" style="stop-color:#9D9D9C"/>
</radialGradient>
<path style="fill:url(#SVGID_00000080164308476764752520000010720412841914707901_);stroke:#9D9D9C;stroke-miterlimit:10;" d="
	M647.1,806.51V728.9h25.15c9.53,0,15.74,0.39,18.63,1.17c4.45,1.17,8.17,3.7,11.17,7.6c3,3.9,4.5,8.94,4.5,15.11
	c0,4.76-0.87,8.77-2.59,12.02c-1.73,3.25-3.93,5.8-6.59,7.65c-2.67,1.85-5.37,3.08-8.13,3.68c-3.74,0.74-9.16,1.11-16.25,1.11
	h-10.22v29.28H647.1z M662.77,742.03v22.02h8.58c6.18,0,10.3-0.41,12.39-1.22c2.08-0.81,3.71-2.08,4.9-3.81
	c1.18-1.73,1.77-3.74,1.77-6.03c0-2.82-0.83-5.15-2.49-6.99c-1.66-1.83-3.76-2.98-6.3-3.44c-1.87-0.35-5.63-0.53-11.28-0.53H662.77z
	 M733.54,806.51h-14.88v-56.22h13.82v7.99c2.36-3.78,4.49-6.26,6.38-7.46c1.89-1.2,4.03-1.8,6.43-1.8c3.39,0,6.65,0.94,9.79,2.81
	l-4.61,12.97c-2.51-1.62-4.84-2.43-6.99-2.43c-2.08,0-3.85,0.57-5.29,1.72c-1.45,1.15-2.58,3.22-3.41,6.22
	c-0.83,3-1.24,9.28-1.24,18.85V806.51z M761.5,742.67V728.9h14.88v13.76H761.5z M761.5,806.51v-56.22h14.88v56.22H761.5z
	 M790.51,750.29h13.71v7.68c4.91-5.96,10.75-8.95,17.52-8.95c3.6,0,6.72,0.74,9.37,2.22c2.65,1.48,4.82,3.72,6.51,6.72
	c2.47-3,5.14-5.24,7.99-6.72s5.91-2.22,9.16-2.22c4.13,0,7.62,0.84,10.48,2.51c2.86,1.68,4.99,4.14,6.41,7.38
	c1.02,2.4,1.54,6.28,1.54,11.65v35.95h-14.88v-32.13c0-5.58-0.51-9.18-1.54-10.8c-1.38-2.12-3.49-3.18-6.35-3.18
	c-2.08,0-4.04,0.63-5.88,1.91c-1.84,1.27-3.16,3.13-3.97,5.58c-0.81,2.45-1.22,6.33-1.22,11.62v27h-14.88V775.7
	c0-5.47-0.26-9-0.79-10.59c-0.53-1.59-1.35-2.77-2.46-3.55c-1.11-0.78-2.62-1.16-4.53-1.16c-2.29,0-4.36,0.62-6.19,1.85
	c-1.83,1.24-3.15,3.02-3.94,5.35c-0.79,2.33-1.19,6.19-1.19,11.59v27.32h-14.88V750.29z M920.58,788.62l14.82,2.49
	c-1.91,5.44-4.92,9.57-9.03,12.41c-4.11,2.84-9.26,4.26-15.43,4.26c-9.78,0-17.01-3.19-21.7-9.58c-3.71-5.12-5.56-11.58-5.56-19.38
	c0-9.32,2.43-16.61,7.3-21.89c4.87-5.28,11.03-7.91,18.48-7.91c8.36,0,14.96,2.76,19.8,8.29c4.83,5.52,7.15,13.98,6.93,25.38h-37.27
	c0.11,4.41,1.3,7.84,3.6,10.3c2.29,2.45,5.15,3.68,8.58,3.68c2.33,0,4.29-0.63,5.88-1.91S919.77,791.44,920.58,788.62z
	 M921.42,773.58c-0.11-4.31-1.22-7.58-3.33-9.82c-2.12-2.24-4.69-3.36-7.73-3.36c-3.25,0-5.93,1.18-8.05,3.55
	c-2.12,2.37-3.16,5.58-3.12,9.63H921.42z"/>
<line class="st7" x1="149.1" y1="830.58" x2="936.21" y2="830.58"/>
<text transform="matrix(1 0 0 1 347.5135 877.5795)" class="st8 st9">Soluções e esquadrias</text>
</svg>
